<svg xmlns="http://www.w3.org/2000/svg" width="640" height="568" viewBox="0 0 640 568"><rect width="640" height="568" fill="#F4F1EA"/><text x="30" y="38" font-family="Georgia,serif" font-size="20" fill="#1C1B19">Paleta hierarquica - contraste forte</text><text x="30" y="108" font-family="monospace" font-size="13" fill="#1C1B19">Distrito 1</text><rect x="120" y="70" width="150" height="60" fill="#1F6F9E" rx="4"/><text x="195" y="105" text-anchor="middle" font-family="monospace" font-size="11" fill="#fff">base</text><rect x="285" y="70" width="150" height="60" fill="#113D56" rx="4"/><text x="360" y="105" text-anchor="middle" font-family="monospace" font-size="11" fill="#fff">R1 escuro</text><rect x="450" y="70" width="150" height="60" fill="#B2CEDE" rx="4"/><text x="525" y="105" text-anchor="middle" font-family="monospace" font-size="11" fill="#1C1B19">R12 claro</text><text x="30" y="186" font-family="monospace" font-size="13" fill="#1C1B19">Distrito 2</text><rect x="120" y="148" width="150" height="60" fill="#3F9A52" rx="4"/><text x="195" y="183" text-anchor="middle" font-family="monospace" font-size="11" fill="#fff">base</text><rect x="285" y="148" width="150" height="60" fill="#22542D" rx="4"/><text x="360" y="183" text-anchor="middle" font-family="monospace" font-size="11" fill="#fff">R2 escuro</text><rect x="450" y="148" width="150" height="60" fill="#BDDCC4" rx="4"/><text x="525" y="183" text-anchor="middle" font-family="monospace" font-size="11" fill="#1C1B19">R7 claro</text><text x="30" y="264" font-family="monospace" font-size="13" fill="#1C1B19">Distrito 3</text><rect x="120" y="226" width="150" height="60" fill="#E0612B" rx="4"/><text x="195" y="261" text-anchor="middle" font-family="monospace" font-size="11" fill="#fff">base</text><rect x="285" y="226" width="150" height="60" fill="#7B3517" rx="4"/><text x="360" y="261" text-anchor="middle" font-family="monospace" font-size="11" fill="#fff">R3 escuro</text><rect x="450" y="226" width="150" height="60" fill="#F4C9B6" rx="4"/><text x="525" y="261" text-anchor="middle" font-family="monospace" font-size="11" fill="#1C1B19">R11 claro</text><text x="30" y="342" font-family="monospace" font-size="13" fill="#1C1B19">Distrito 4</text><rect x="120" y="304" width="150" height="60" fill="#2E8B8B" rx="4"/><text x="195" y="339" text-anchor="middle" font-family="monospace" font-size="11" fill="#fff">base</text><rect x="285" y="304" width="150" height="60" fill="#194C4C" rx="4"/><text x="360" y="339" text-anchor="middle" font-family="monospace" font-size="11" fill="#fff">R4 escuro</text><rect x="450" y="304" width="150" height="60" fill="#B7D7D7" rx="4"/><text x="525" y="339" text-anchor="middle" font-family="monospace" font-size="11" fill="#1C1B19">R8 claro</text><text x="30" y="420" font-family="monospace" font-size="13" fill="#1C1B19">Distrito 5</text><rect x="120" y="382" width="150" height="60" fill="#C9A24B" rx="4"/><text x="195" y="417" text-anchor="middle" font-family="monospace" font-size="11" fill="#fff">base</text><rect x="285" y="382" width="150" height="60" fill="#6E5929" rx="4"/><text x="360" y="417" text-anchor="middle" font-family="monospace" font-size="11" fill="#fff">R5 escuro</text><rect x="450" y="382" width="150" height="60" fill="#ECDFC1" rx="4"/><text x="525" y="417" text-anchor="middle" font-family="monospace" font-size="11" fill="#1C1B19">R10 claro</text><text x="30" y="498" font-family="monospace" font-size="13" fill="#1C1B19">Distrito 6</text><rect x="120" y="460" width="150" height="60" fill="#8E5572" rx="4"/><text x="195" y="495" text-anchor="middle" font-family="monospace" font-size="11" fill="#fff">base</text><rect x="285" y="460" width="150" height="60" fill="#4E2E3E" rx="4"/><text x="360" y="495" text-anchor="middle" font-family="monospace" font-size="11" fill="#fff">R6 escuro</text><rect x="450" y="460" width="150" height="60" fill="#D8C5CF" rx="4"/><text x="525" y="495" text-anchor="middle" font-family="monospace" font-size="11" fill="#1C1B19">R9 claro</text></svg>